<?xml version="1.0" encoding="UTF-8" standalone="no"?>
<svg
   width="320"
   height="320"
   version="1.1"
   id="svg1"
   sodipodi:docname="sp.svg"
   inkscape:version="1.4.3 (0d15f75, 2025-12-25)"
   xmlns:inkscape="http://www.inkscape.org/namespaces/inkscape"
   xmlns:sodipodi="http://sodipodi.sourceforge.net/DTD/sodipodi-0.dtd"
   xmlns="http://www.w3.org/2000/svg"
   xmlns:svg="http://www.w3.org/2000/svg">
  <defs
     id="defs1" />
  <sodipodi:namedview
     id="namedview1"
     pagecolor="#ffffff"
     bordercolor="#000000"
     borderopacity="0.25"
     inkscape:showpageshadow="2"
     inkscape:pageopacity="0.0"
     inkscape:pagecheckerboard="0"
     inkscape:deskcolor="#d1d1d1"
     inkscape:zoom="2.6290323"
     inkscape:cx="155.38037"
     inkscape:cy="155"
     inkscape:window-width="1920"
     inkscape:window-height="1017"
     inkscape:window-x="-8"
     inkscape:window-y="-8"
     inkscape:window-maximized="1"
     inkscape:current-layer="svg1" />
  <g
     transform="matrix(3.36601,0,0,3.25886,-1317.1978,-783.16063)"
     id="Layer_1"
     style="stroke-dasharray:none;stroke-dashoffset:0;stroke-width:1.69444357">
    <g
       transform="translate(428.994,292.973)"
       stroke-width="0"
       id="SVGRepo_bgCarrier"
       style="stroke-dasharray:none;stroke-dashoffset:0;stroke-width:1.69444357" />
    <g
       transform="translate(428.994,292.973)"
       stroke-linejoin="round"
       stroke-linecap="round"
       id="SVGRepo_tracerCarrier"
       style="stroke-dasharray:none;stroke-dashoffset:0;stroke-width:1.69444357" />
    <path
       id="svg_1"
       fill=" color(a98-rgb 0.34 0.517 0.903)"
       d="m 420.59723,262.09491 c -2.088,-2.412 -5.666,-2.844 -8.27,-1 -2.704,1.95 -5.243,4.121 -7.59,6.49 -7.49,7.49 8.92,30.55 16.42,38.05 6.16,6.16 22.82,18.31 32.69,18.31 1.96,0.112 3.88,-0.577 5.32,-1.91 2.366,-2.35 4.537,-4.888 6.49,-7.59 1.844,-2.604 1.412,-6.182 -1,-8.27 -3.69,-3.16 -12.62,-10.16 -15.75,-7 -2.22,2.23 -8.13,8.14 -11.22,5.06 l -15.12,-15.17 c -3.08,-3.09 2.83,-9 5.06,-11.22 3.13,-3.13 -3.87,-12.06 -7.03,-15.75 z m -1.52,1.29 c 5.74,6.72 8.17,12 7.13,13 -0.43,0.44 -1,1 -1.58,1.63 l -11,-15.37 c 1.746,-1.152 4.075,-0.836 5.45,0.74 z m 31.29,37.2 c 1,-1 6.32,1.39 13,7.13 1.529,1.344 1.871,3.592 0.81,5.33 l -14.82,-11.47 z m -29.21,-10.11 15.16,15.16 c 3.71,3.71 9.08,-0.36 12.31,-3.37 l 15,11.6 c -1.756,2.399 -3.688,4.666 -5.78,6.78 -5.53,5.52 -26.15,-7.36 -35.23,-16.42 -9.08,-9.06 -21.99,-29.7 -16.47,-35.23 2.087,-2.084 4.327,-4.01 6.7,-5.76 l 11.09,15.57 c -2.91,3.27 -6.25,8.2 -2.78,11.67 z"
       class="cls-1"
       style="stroke-dasharray:none;stroke-dashoffset:0;stroke-width:2.05313903;fill:#000000;fill-opacity:1;stroke:#3685ea;stroke-opacity:1" />
    <path
       id="svg_2"
       fill=" color(a98-rgb 0.34 0.517 0.903)"
       d="m 434.84723,259.94491 c -0.769,0 -1.251,0.833 -0.866,1.5 0.179,0.309 0.509,0.5 0.866,0.5 16.569,0 30,13.431 30,30 0,0.769 0.834,1.251 1.5,0.866 0.31,-0.179 0.5,-0.509 0.5,-0.866 0,-17.673 -14.327,-32 -32,-32 z"
       class="cls-1"
       style="stroke-dasharray:none;stroke-dashoffset:0;stroke-width:1.69444357;stroke:#3685ea;stroke-opacity:1;fill:#3483ea;fill-opacity:1" />
    <path
       id="svg_3"
       fill=" color(a98-rgb 0.34 0.517 0.903)"
       d="m 460.67723,289.94491 h 0.11 c 0.546,-0.063 0.939,-0.554 0.88,-1.1 -1.389,-12.476 -11.235,-22.325 -23.71,-23.72 -0.769,-0.085 -1.342,0.695 -1.031,1.404 0.145,0.329 0.454,0.556 0.811,0.596 11.54,1.283 20.651,10.39 21.94,21.93 0.057,0.509 0.488,0.893 1,0.89 z"
       class="cls-1"
       style="stroke-dasharray:none;stroke-dashoffset:0;stroke-width:1.69444357;stroke:#3685ea;stroke-opacity:1;fill:#3483ea;fill-opacity:1" />
    <path
       id="svg_4"
       fill=" color(a98-rgb 0.34 0.517 0.903)"
       d="m 454.01723,286.23491 c 0.224,0.739 1.163,0.959 1.692,0.396 0.245,-0.261 0.332,-0.633 0.228,-0.976 -2.241,-7.478 -8.269,-13.214 -15.85,-15.08 -0.754,-0.156 -1.393,0.563 -1.151,1.293 0.103,0.313 0.355,0.555 0.671,0.647 6.894,1.699 12.375,6.917 14.41,13.72 z"
       class="cls-1"
       style="stroke-dasharray:none;stroke-dashoffset:0;stroke-width:1.69444357;stroke:#3685ea;stroke-opacity:1;fill:#3483ea;fill-opacity:1" />
    <text
       xml:space="preserve"
       style="font-style:normal;font-variant:normal;font-weight:bold;font-stretch:normal;font-size:13.6565px;font-family:'Hack Nerd Font Mono';-inkscape-font-specification:'Hack Nerd Font Mono Bold';writing-mode:lr-tb;direction:ltr;fill:#3383eb;fill-opacity:1;stroke:#3685ea;stroke-width:0;stroke-dasharray:none;stroke-dashoffset:0;stroke-opacity:1"
       x="445.00519"
       y="283.44485"
       id="text1"
       transform="scale(0.9699716,1.030958)"><tspan
         sodipodi:role="line"
         id="tspan1"
         style="font-style:normal;font-variant:normal;font-weight:bold;font-stretch:normal;font-size:13.6565px;font-family:'Hack Nerd Font Mono';-inkscape-font-specification:'Hack Nerd Font Mono Bold';stroke-width:0;stroke:#3685ea;stroke-opacity:1;fill:#3383eb;fill-opacity:1"
         x="445.00519"
         y="283.44485">SP</tspan></text>
  </g>
  <path
     id="svg_6"
     d="M 160.35399,306.32116 C 79.268401,306.32116 12.895301,239.62417 12.038781,157.28221 11.182261,74.940249 76.167811,8.2432586 157.25339,8.2432586 c 81.08559,0 147.45869,66.6969904 148.31521,149.0389514 0.85652,82.34196 -64.12903,149.03895 -145.21461,149.03895 z"
     opacity="undefined"
     stroke-width="8"
     stroke="#3685ea"
     fill="none"
     style="stroke-width:12;stroke-dasharray:none;stroke-dashoffset:0" />
</svg>
